<?xml version="1.0" encoding="UTF-8" standalone="no"?><!-- Generator: Gravit.io --><svg xmlns="http://www.w3.org/2000/svg" xmlns:xlink="http://www.w3.org/1999/xlink" style="isolation:isolate" viewBox="0 0 547 124" width="547pt" height="124pt"><defs><clipPath id="_clipPath_Rf8Jb6eU5lxES5pC0PqOUiqSmHj45ENn"><rect width="547" height="124"/></clipPath></defs><g clip-path="url(#_clipPath_Rf8Jb6eU5lxES5pC0PqOUiqSmHj45ENn)"><rect x="-82.167" y="-52" width="711.167" height="1698" transform="matrix(1,0,0,1,0,0)" fill="none"/><clipPath id="_clipPath_CSj7FHe6KBk6Cd9fsxjYS9NidW5MWRsj"><path d=" M -82.167 -52 L 629 -52 L 629 1646 L -82.167 1646 L -82.167 -52 Z " fill="rgb(255,255,255)"/></clipPath><g clip-path="url(#_clipPath_CSj7FHe6KBk6Cd9fsxjYS9NidW5MWRsj)"><path d=" M 321.69 340.065 C 322.719 341.031 323.092 342.586 322.371 343.81 C 321.109 346.203 318.628 347.415 316.352 348.544 C 310.178 351.196 303.933 354.075 297.511 356.018 C 304.782 356.687 312.221 356.321 319.534 356.284 C 332.95 356.112 346.382 355.858 359.774 357.145 C 368.542 358.022 377.233 359.298 385.551 362.475 C 389.785 364.25 393.853 366.068 397.185 369.398 C 398.418 370.487 399.199 372.409 399.016 374.049 C 398.643 377.195 396.227 379.454 393.525 380.619 C 395.102 379.112 396.461 377.096 396.419 374.721 C 396.168 372.447 394.319 371.107 392.489 370.261 C 382.528 365.295 371.284 365.043 360.524 363.804 C 337.494 361.471 314.184 361.882 291.283 365.349 C 285.085 366.585 278.58 367.409 272.947 370.632 C 271.727 371.277 270.17 372.935 271.455 374.347 C 273.51 376.109 282.286 380.175 283.359 383.829 C 283.716 385.09 283.076 386.36 282.1 387.032 C 280.182 388.344 272.683 390.957 266.752 387.769 C 265.167 386.931 263.618 386.028 262.103 385.067 C 254.719 380.086 246.939 375.62 240.107 369.79 C 238.399 368.132 236.175 366.077 236.958 363.389 C 237.938 361.183 240.352 360.066 242.324 359.007 C 247.78 356.407 279.475 345.787 299.475 339.311 C 307.847 336.606 312.35 336.827 314.57 337.083 C 317.145 337.426 319.712 338.175 321.69 340.064 L 321.69 340.065 Z " fill="rgb(53,43,106)"/><path d=" M 43.679 447.963 C 42.991 456.713 41.997 465.439 41.414 474.217 C 41.261 476.935 40.773 479.603 40.849 482.337 C 41.624 480.597 42.652 479.009 43.647 477.402 C 49.52 467.583 55.509 457.863 61.335 448.015 C 68.979 447.883 76.621 447.963 84.276 447.971 C 78.593 464.998 72.88 482.012 67.275 499.04 C 62.487 499.084 57.706 499.068 52.915 499.054 C 57.449 485.447 62.487 472.026 66.997 458.401 C 58.629 472.08 50.199 485.721 41.707 499.322 C 37.166 499.282 32.624 499.282 28.084 499.322 C 29.078 485.672 30.073 472.023 30.74 458.342 C 26.345 471.984 21.505 485.43 17.078 499.04 C 12.59 499.068 8.092 499.105 3.6 499.04 C 9.396 482.012 15.267 464.998 21.072 447.963 C 28.607 447.957 36.138 447.963 43.678 447.963 L 43.679 447.963 Z  M 223.969 447.958 C 219.394 461.547 214.943 475.15 210.368 488.734 C 209.376 492.198 207.908 495.517 207.096 499.052 C 202.206 499.251 197.316 499.103 192.437 499.124 C 197.897 482.028 203.801 465.086 209.313 448.045 C 214.208 447.849 219.097 447.989 223.969 447.958 Z  M 184.488 459.27 C 186.397 458.645 188.272 459.68 190.185 459.541 C 191.845 459.385 193.01 458.011 194.14 456.872 C 195.882 455.064 196.797 452.207 195.908 449.744 C 195.083 448.141 193.069 448.159 191.571 448.401 C 188.328 449.108 185.354 450.791 182.659 452.812 C 180.877 454.034 179.043 455.187 177.434 456.681 C 172.253 460.888 167.218 465.27 162.242 469.765 C 161.597 463.329 161.785 456.855 162.425 450.442 C 162.605 449.408 162.632 448.091 161.816 447.542 C 160.825 446.864 159.382 447.366 158.324 447.967 C 156.686 448.906 155.463 450.558 153.594 451.031 C 151.722 451.735 149.139 452.249 148.596 454.582 C 147.799 456.884 151.23 457.186 150.887 459.363 C 151.349 465.743 152.181 472.062 152.915 478.391 C 145.247 485.786 137.472 492.995 129.766 500.312 C 128.677 483.329 127.985 466.328 126.906 449.348 C 120.866 449.348 114.846 449.354 108.793 449.354 C 96.223 466.389 83.626 483.408 71.004 500.408 C 76.341 500.431 81.691 500.578 87.028 500.356 C 89.21 496.64 91.789 493.186 94.063 489.566 C 101.093 489.517 108.112 489.566 115.123 489.543 C 115.161 493.17 115.152 496.819 115.123 500.445 C 119.929 500.461 124.717 500.461 129.524 500.461 C 126.046 504.059 122.208 507.251 118.839 510.957 C 117.34 512.633 115.417 513.987 114.362 516.046 C 113.57 517.496 113.84 519.571 115.298 520.443 C 117.489 520.992 119.511 519.614 121.422 518.73 C 122.901 517.875 124.758 518.295 126.139 517.204 C 129.976 514.213 133.731 511.12 137.399 507.922 C 138.91 506.546 140.514 505.203 141.668 503.469 C 142.433 502.381 141.095 501.261 141.209 500.098 C 141.267 497.821 143.052 496.205 144.483 494.703 C 147.647 491.751 150.843 488.779 153.834 485.628 C 154.661 488.912 154.991 492.337 156.106 495.543 C 157.545 499.714 159.906 503.591 163.217 506.389 C 166.986 509.295 172.058 510.021 176.518 508.631 C 179.41 507.694 181.348 505.128 183.871 503.537 C 185.656 502.387 187.672 501.442 188.947 499.598 C 190.509 497.294 191.588 494.484 191.522 491.616 C 191.506 490.145 190.53 488.4 188.931 488.568 C 186.434 488.701 184.09 490.555 183.135 492.973 C 182.062 495.074 181.967 497.532 181.002 499.645 C 180.029 501.559 177.611 501.282 176.011 500.552 C 170.313 498.147 166.743 492.311 164.789 486.449 C 164.001 483.424 163.276 480.35 162.81 477.26 C 167.39 472.906 171.995 468.616 176.742 464.473 C 179.203 462.573 181.426 460.109 184.488 459.27 Z  M 114.642 479.839 C 110.136 479.854 105.641 479.868 101.141 479.82 C 105.58 473.336 110.237 466.999 114.544 460.389 C 114.773 466.876 114.6 473.352 114.642 479.838" fill="rgb(53,43,106)"/><path d=" M 161.594 371.507 C 173.107 387.957 188.684 390.707 200.767 393.97 C 224.556 400.387 267.232 400.94 275.687 400.77 C 310.543 400.097 327.99 392.165 335.372 389.087 C 344.291 385.408 351.969 380.18 351.693 372.007 C 352.608 373.958 353.076 375.416 352.356 378.462 C 348.052 396.915 305.849 405.127 281.421 406.044 C 270.252 406.482 236.431 407.742 213.408 406.83 C 221.994 411.902 241.756 413.791 242.726 426.588 C 242.92 429.128 237.44 435.046 222.917 429.847 C 219.922 428.753 216.89 427.702 213.952 426.412 C 211.726 425.506 197.296 419.43 195.682 418.682 C 191.87 417 178.093 411.71 177.345 411.454 C 173.2 409.815 158.387 404.523 155.309 403.062 C 151.159 400.848 146.878 397.991 145.058 393.292 C 143.966 390.502 144.122 387.265 145.495 384.678 C 149.972 376.301 161.596 371.507 161.596 371.507" fill="rgb(255,145,0)"/><path d=" M 426.07 479.793 L 426.069 479.793 C 424.083 482.516 410.371 500.427 404.186 495.88 C 398.35 489.508 408.728 473.039 412.517 468.889 C 415.803 465.069 429.847 449.408 434.731 455.343 C 439.158 461.069 427.853 477.305 426.07 479.793 Z  M 432.315 449.643 C 423.812 450.425 417.15 458.187 413.232 462.499 C 411.547 464.373 409.064 467.427 407.208 469.52 C 408.214 466.62 421.029 435.08 426.956 420.29 C 427.882 418.19 430.417 413.853 429.246 412.971 C 427.626 411.47 411.519 413.982 413.199 416.435 C 415.071 419.168 419.113 417.494 416.227 424.975 C 414.147 430.343 412.032 435.686 409.972 441.008 C 404.868 453.095 399.888 465.246 396.081 477.834 C 394.671 483.016 392.924 488.515 394.177 493.868 C 396.212 502.678 404.476 501.024 408.061 500.513 C 419.059 498.522 431.533 487.24 437.068 479.177 C 440.444 474.275 443.367 468.913 444.25 462.919 C 444.883 459.489 444.676 448.512 432.315 449.643 Z " fill="rgb(255,145,0)"/><path d=" M 467.191 420.669 C 469.162 419.77 471.513 419.77 473.537 420.531 C 474.838 421.332 475.673 422.956 475.436 424.568 C 475.1 427.806 472.93 430.61 470.139 432.016 C 468.204 432.757 465.98 432.007 464.669 430.363 C 463.848 429.413 463.603 428.116 463.224 426.919 C 463.696 424.385 465.106 422.084 467.191 420.669 Z " fill="rgb(255,145,0)"/><path d=" M 274.242 489.876 C 273.164 490.716 264.831 497.809 265.409 489.993 C 266.239 482.657 269.586 475.684 273.368 469.582 C 274.776 467.177 279.654 460.736 284.442 457.597 C 287.843 455.394 290.398 455.458 292.42 456.136 C 294.663 456.896 296.084 458.873 295.53 461.556 C 293.363 473.949 277.168 487.233 274.242 489.876 Z  M 305.729 485.116 L 305.731 485.117 C 302.264 487.873 299.558 490.375 295.595 492.28 C 294.519 492.849 292.915 492.782 291.795 492.607 C 292.639 487.93 295.421 482.337 297.119 477.963 C 299.658 471.066 302.251 465.55 305.014 458.754 C 306.339 455.097 307.921 451.877 309.439 448.306 C 308.091 445.965 305.177 445.815 302.859 446.297 C 301.947 448.811 300.532 451.279 299.611 453.782 C 298.849 453.306 295.703 449.643 289.999 450.784 C 287.594 451.279 285.406 452.313 283.315 453.613 C 279.764 455.724 274.433 460.062 271.309 463.21 C 267.935 466.8 264.942 470.75 262.258 474.937 C 259.776 478.821 256.86 483.451 255.619 488.011 C 254.556 491.727 254.23 495.358 256.393 498.756 C 260.725 503.428 271.469 496.593 274.075 494.65 C 279.724 490.464 286.311 483.142 287.66 482.378 C 286.533 485.592 285.645 488.491 284.273 491.785 C 283.379 493.817 282.436 497.151 283.593 499.184 C 285.237 500.556 288.413 500.208 290.046 499.929 C 296.599 498.66 303.222 491.745 307.409 487.474 C 308.68 486.344 307.35 484.22 305.729 485.116 Z " fill="rgb(255,145,0)"/><path d=" M 322.838 451.395 C 325.345 450.341 328.278 448.975 330.629 450.449 C 332.184 451.376 332.152 453.429 331.645 454.908 C 329.364 461.646 328.055 462.93 325.861 468.895 C 325.647 469.474 322.355 476.841 323.079 477.183 C 325.412 474.047 330.576 466.445 335.138 461.61 C 339.366 457.487 343.867 453.07 348.666 451.395 C 351.441 450.427 354.578 450.003 357.128 451.113 C 362.127 453.259 358.35 463.547 356.712 467.732 C 356.117 469.129 352.976 475.676 353.313 476.135 C 353.584 476.528 361.877 464.956 362.447 464.215 C 368.462 456.116 379.509 448.081 386.397 451.19 C 388.544 452.176 389.828 454.785 389.672 457.269 C 389.478 463.817 386.319 469.474 383.939 475.361 C 381.637 480.709 380.509 482.68 378.045 487.946 C 377.639 488.79 375.523 493.219 376.146 493.877 C 376.792 494.548 380.656 493.622 386.96 487.482 C 389.353 485.158 391.338 487.517 389.936 489.152 C 387.427 492.063 384.516 494.789 381.467 496.989 C 379.146 498.732 376.325 499.965 373.656 500.976 C 371.677 501.736 362.047 503.156 367.019 493.382 C 369.279 488.965 370.821 484.852 373.021 480.397 C 374.71 475.827 383.519 458.491 381.065 455.951 C 375.186 452.4 362.926 470.064 358.26 476.563 C 356.421 479.432 352.62 484.421 350.483 487.95 C 346.938 493.799 342.055 504.205 338.068 501.233 C 336.233 499.83 337.467 496.581 338.027 495.396 C 339.69 491.901 344.524 479.569 346.29 475.274 C 348.497 470.27 352.156 462.638 352.247 458.19 C 352.257 457.134 352.266 455.811 350.59 455.44 C 348.868 455.049 347.026 456.282 345.594 457.195 C 339.34 461.646 334.799 467.103 330.193 473.314 C 323.882 482.044 320.365 490.267 314.62 499.37 C 312.491 502.725 306.83 502.602 308.561 497.593 C 309.698 494.297 310.884 490.993 312.297 487.814 C 314.872 481.083 317.322 474.948 319.758 468.149 C 321.022 464.596 323.882 458.489 322.393 457.549 C 320.652 456.421 317.936 457.636 315.873 459.006 C 313.835 460.254 312.674 461.767 310.885 463.355 C 310.098 464.055 308.686 463.089 309.505 461.011 C 310.135 459.422 312.841 457.521 314.62 456.309 C 318.787 453.429 322.838 451.395 322.838 451.395 Z " fill="rgb(255,145,0)"/><path d=" M 469.7 449.946 C 470.802 450.155 471.239 452.615 470.708 453.674 C 467.015 462.131 453.191 492.786 454.246 492.816 C 458.737 493.025 465.695 486.755 466.921 485.235 C 468.328 483.449 470.864 484.484 469.786 486.436 C 468.184 489.359 459.971 495.327 458.851 496.106 C 453.415 499.919 447.234 501.25 444.905 500.074 C 442.581 498.886 443.96 495.227 444.92 493.083 C 448.88 483.796 453.005 474.595 457.144 465.401 C 458.294 462.741 459.584 460.572 460.247 458.117 C 460.695 456.48 456.996 458.315 456.237 458.874 C 453.369 460.705 449.247 465.027 447.913 463.51 C 446.618 462.07 448.593 459.427 449.986 458.375 C 460.247 450.665 466.352 449.294 469.7 449.946 Z " fill="rgb(255,145,0)"/><path d=" M 246.674 451.575 C 250.76 449.469 255.83 449.244 260.378 450.881 C 265.147 452.588 265.157 459.37 263.885 460.782 C 262.037 462.72 258.365 463.9 256.415 462.195 C 254.609 460.618 255.952 457.734 254.8 455.713 C 253.634 453.703 250.168 453.82 248.224 454.998 C 246.541 455.945 236.311 464.127 233.314 480.09 C 232.696 483.31 232.437 486.63 232.659 489.879 C 232.784 491.682 233.697 494.192 235.634 494.511 C 238.192 494.943 240.927 494.518 243.244 493.162 C 245.846 491.651 247.497 490.573 249.874 488.685 C 251.731 487.2 254.337 488.926 252.626 490.706 C 251.083 492.324 249.277 493.904 247.555 495.317 C 245.65 496.676 238.849 503.349 227.964 500.217 C 221.477 498.193 222.174 483.996 223.935 479.152 C 229.091 464.981 238.967 455.532 246.674 451.575 Z " fill="rgb(255,145,0)"/><path d=" M 539.921 450.696 C 543.041 452.219 543.832 455.909 542.816 458.466 C 542.229 460 540.382 461.223 538.96 460.399 C 537.664 459.427 536.797 457.828 535.426 456.946 C 533.772 456.021 530.298 454.264 527.296 456.894 C 525.267 458.667 525.786 462.948 526.919 465.449 C 528.47 469.15 530.655 472.466 532.728 475.856 C 535.079 479.821 535.73 484.463 533.997 488.749 C 532.426 492.72 529.087 496.353 525.215 498.58 C 517.875 502.829 507.492 501.334 507.768 493.738 C 507.786 492.214 508.523 490.621 509.734 489.916 C 510.866 489.306 512.029 489.715 513.15 490.564 C 514.442 491.5 518.291 496.534 523.93 494.458 C 526.341 493.59 527.39 490.748 527.435 488.119 C 527.478 484.731 525.777 481.888 524.078 479.251 C 522.088 475.438 519.538 471.879 518.579 467.582 C 517.994 464.263 519.355 461.026 521.068 458.342 C 523.03 455.65 525.508 453.894 528.284 452.188 C 528.284 452.188 534.437 448.028 539.921 450.696 Z  M 501.013 449.81 C 491.257 449.518 480.297 460.278 476.373 467.411 C 474.885 470.15 466.208 485.998 472.784 495.796 C 475.301 499.322 479.35 500.396 483.43 500.972 C 495.447 502.679 507.51 486.71 510.743 478.57 C 512.785 473.458 522.025 451.385 501.014 449.81 M 498.569 483.375 C 497.68 485.047 490.247 500.102 481.789 496.692 C 475.118 494.007 481.473 478.696 483.644 473.134 C 486.812 466.207 494.213 451.802 501.527 453.561 C 510.98 457.418 500.318 480.016 498.568 483.375" fill="rgb(255,145,0)"/></g><clipPath id="_clipPath_KVF4kw9oT1nerReHtc26KSBMp3RWPPRX"><path d=" M -82.167 -52 L 629 -52 L 629 1646 L -82.167 1646 L -82.167 -52 Z " fill="rgb(255,255,255)"/></clipPath><g clip-path="url(#_clipPath_KVF4kw9oT1nerReHtc26KSBMp3RWPPRX)"><path d=" M 39.055 975.634 L -3.541 975.634 L -3.541 933.038 L 39.055 933.038 L 39.055 975.634 Z " fill="rgb(255,145,0)"/></g><clipPath id="_clipPath_yaMfvVJPESYGha2CAPQT8pO7vGVa8V0w"><path d=" M -82.167 -52 L 629 -52 L 629 1646 L -82.167 1646 L -82.167 -52 Z " fill="rgb(255,255,255)"/></clipPath><g clip-path="url(#_clipPath_yaMfvVJPESYGha2CAPQT8pO7vGVa8V0w)"><path d=" M 39.055 1262.974 L -3.541 1262.974 L -3.541 1220.378 L 39.055 1220.378 L 39.055 1262.974 Z " fill="rgb(53,43,106)"/></g><g><path d=" M 238.837 1.197 C 242.454 1.653 246.079 2.667 248.848 5.192 C 250.286 6.502 250.808 8.56 249.808 10.218 C 248.028 13.421 244.531 15.069 241.355 16.55 C 232.683 20.13 223.907 23.984 214.877 26.605 C 225.105 27.487 235.562 26.991 245.804 26.973 C 264.65 26.734 283.503 26.384 302.298 28.101 C 314.616 29.285 326.821 30.997 338.498 35.263 C 344.458 37.641 350.145 40.086 354.842 44.538 C 356.559 46.005 357.676 48.598 357.403 50.792 C 356.888 55.02 353.484 58.041 349.69 59.623 C 351.915 57.575 353.812 54.881 353.774 51.7 C 353.411 48.641 350.81 46.848 348.235 45.719 C 334.254 39.05 318.47 38.712 303.356 37.053 C 271.024 33.909 238.311 34.458 206.15 39.119 C 197.429 40.788 188.316 41.884 180.41 46.204 C 178.692 47.075 176.522 49.295 178.305 51.178 C 181.179 53.549 193.521 59.012 195.014 63.932 C 195.514 65.615 194.631 67.307 193.255 68.226 C 190.562 69.972 180.025 73.491 171.701 69.201 C 169.466 68.053 167.301 66.87 165.175 65.584 C 154.808 58.887 143.893 52.906 134.301 45.068 C 131.9 42.851 128.79 40.102 129.885 36.484 C 131.25 33.528 134.651 32.035 137.411 30.605 C 145.073 27.12 189.58 12.877 217.661 4.181 C 229.41 0.539 235.734 0.851 238.837 1.197 Z " fill="rgb(53,43,106)"/><path d=" M 25.239 42.563 C 41.394 64.629 63.257 68.335 80.228 72.71 C 113.625 81.313 173.536 82.064 185.418 81.834 C 234.345 80.911 258.84 70.277 269.23 66.169 C 281.733 61.227 292.519 54.195 292.117 43.232 C 293.425 45.853 294.061 47.816 293.069 51.89 C 287.022 76.651 227.775 87.669 193.473 88.913 C 177.789 89.488 130.308 91.187 97.982 89.953 C 110.036 96.763 137.779 99.301 139.146 116.454 C 139.415 119.859 131.719 127.811 111.341 120.837 C 107.117 119.381 102.864 117.966 98.742 116.233 C 95.598 115.01 75.353 106.863 73.095 105.862 C 67.731 103.605 48.386 96.493 47.35 96.16 C 41.526 93.965 20.731 86.865 16.397 84.897 C 10.578 81.935 4.562 78.099 2.018 71.783 C 0.471 68.052 0.698 63.691 2.624 60.239 C 8.912 48.99 25.239 42.563 25.239 42.563 Z " fill="rgb(255,145,0)"/><path d=" M 495.577 46.591 C 496.862 46.019 498.389 46.025 499.706 46.492 C 500.549 47.002 501.103 48.015 500.945 49.01 C 500.73 51.03 499.313 52.784 497.501 53.648 C 496.231 54.117 494.788 53.64 493.936 52.626 C 493.396 52.028 493.236 51.221 492.995 50.482 C 493.306 48.904 494.22 47.465 495.577 46.591 Z " fill="rgb(255,145,0)"/><path d=" M 265.953 82.404 C 263.021 82.414 260.09 82.428 257.162 82.395 C 260.056 78.359 263.087 74.409 265.891 70.303 C 266.041 74.334 265.93 78.371 265.953 82.404 Z  M 311.453 69.602 C 312.69 69.214 313.915 69.863 315.16 69.776 C 316.237 69.671 317.003 68.82 317.729 68.105 C 318.871 66.985 319.458 65.206 318.884 63.667 C 318.356 62.668 317.04 62.686 316.067 62.835 C 313.95 63.273 312.007 64.329 310.256 65.576 C 309.095 66.346 307.899 67.064 306.851 67.99 C 303.484 70.614 300.195 73.339 296.96 76.133 C 296.54 72.131 296.664 68.099 297.075 64.107 C 297.202 63.459 297.209 62.641 296.681 62.298 C 296.033 61.883 295.096 62.187 294.407 62.571 C 293.343 63.148 292.542 64.179 291.329 64.472 C 290.112 64.911 288.43 65.231 288.068 66.687 C 287.546 68.115 289.779 68.306 289.563 69.664 C 289.866 73.627 290.408 77.564 290.883 81.512 C 285.895 86.107 280.826 90.605 275.806 95.156 C 275.095 84.583 274.648 73.996 273.942 63.423 C 270.013 63.423 266.087 63.425 262.149 63.425 C 253.965 74.031 245.75 84.627 237.531 95.213 C 241.01 95.227 244.496 95.321 247.972 95.174 C 249.394 92.863 251.067 90.718 252.558 88.454 C 257.13 88.429 261.7 88.452 266.265 88.441 C 266.296 90.706 266.286 92.97 266.272 95.236 C 269.398 95.245 272.522 95.245 275.647 95.239 C 273.384 97.478 270.884 99.466 268.687 101.772 C 267.711 102.819 266.464 103.663 265.772 104.942 C 265.26 105.843 265.434 107.13 266.376 107.678 C 267.813 108.022 269.118 107.167 270.368 106.606 C 271.334 106.084 272.549 106.342 273.446 105.662 C 275.936 103.799 278.396 101.885 280.778 99.888 C 281.769 99.033 282.807 98.193 283.556 97.107 C 284.056 96.434 283.185 95.738 283.261 95.013 C 283.293 93.6 284.46 92.591 285.392 91.666 C 287.46 89.822 289.534 87.976 291.486 86.011 C 292.023 88.057 292.232 90.187 292.96 92.184 C 293.9 94.775 295.432 97.193 297.587 98.933 C 300.049 100.742 303.35 101.194 306.258 100.327 C 308.14 99.745 309.4 98.149 311.043 97.162 C 312.215 96.443 313.519 95.844 314.347 94.704 C 315.373 93.273 316.069 91.52 316.037 89.736 C 316.016 88.82 315.386 87.735 314.342 87.843 C 312.716 87.927 311.188 89.082 310.566 90.582 C 309.873 91.886 309.804 93.413 309.175 94.736 C 308.544 95.927 306.966 95.754 305.924 95.296 C 302.209 93.795 299.891 90.167 298.616 86.527 C 298.106 84.638 297.637 82.735 297.332 80.801 C 300.31 78.097 303.313 75.423 306.404 72.839 C 308.008 71.66 309.455 70.118 311.453 69.602 Z " fill="rgb(53,43,106)"/><path d=" M 327.153 63.418 C 330.332 63.302 333.518 63.393 336.696 63.37 C 333.718 71.825 330.814 80.301 327.84 88.752 C 327.188 90.916 326.231 92.974 325.702 95.173 C 322.522 95.295 319.341 95.208 316.16 95.221 C 319.717 84.584 323.559 74.038 327.153 63.418 Z " fill="rgb(53,43,106)"/><path d=" M 204.884 63.43 C 209.791 63.418 214.701 63.43 219.61 63.425 C 219.165 68.876 218.522 74.313 218.139 79.773 C 218.036 81.461 217.717 83.129 217.763 84.827 C 218.269 83.743 218.945 82.757 219.594 81.757 C 223.414 75.645 227.318 69.587 231.107 63.46 C 236.089 63.386 241.07 63.425 246.05 63.437 C 242.357 74.032 238.632 84.621 234.982 95.227 C 231.865 95.251 228.749 95.245 225.628 95.235 C 228.583 86.767 231.86 78.403 234.802 69.929 C 229.343 78.437 223.863 86.939 218.321 95.399 C 215.368 95.379 212.41 95.379 209.454 95.395 C 210.103 86.9 210.751 78.404 211.186 69.899 C 208.325 78.379 205.176 86.758 202.289 95.227 C 199.363 95.245 196.43 95.261 193.503 95.226 C 197.28 84.621 201.107 74.032 204.884 63.43 Z " fill="rgb(53,43,106)"/><path d=" M 468.422 83.081 C 467.128 84.781 458.202 95.929 454.177 93.091 C 450.366 89.138 457.135 78.873 459.604 76.289 C 461.744 73.927 470.891 64.174 474.071 67.863 C 476.954 71.429 469.59 81.531 468.422 83.081 Z  M 472.49 64.317 C 466.956 64.803 462.617 69.631 460.068 72.323 C 458.968 73.487 457.352 75.383 456.138 76.69 C 456.793 74.881 465.15 55.253 468.999 46.047 C 469.616 44.737 471.25 42.045 470.491 41.496 C 469.435 40.554 458.953 42.115 460.042 43.646 C 461.257 45.34 463.901 44.297 462.015 48.966 C 460.662 52.305 459.285 55.618 457.938 58.947 C 454.62 66.461 451.38 74.027 448.892 81.865 C 447.975 85.093 446.84 88.509 447.65 91.846 C 448.982 97.324 454.357 96.297 456.7 95.979 C 463.865 94.74 471.982 87.718 475.599 82.695 C 477.789 79.652 479.695 76.309 480.276 72.576 C 480.681 70.441 480.55 63.611 472.49 64.317 Z " fill="rgb(255,145,0)"/><path d=" M 369.577 89.553 C 368.873 90.07 363.447 94.493 363.825 89.622 C 364.364 85.059 366.54 80.716 369.002 76.916 C 369.921 75.423 373.091 71.413 376.222 69.462 C 378.429 68.083 380.094 68.122 381.408 68.551 C 382.868 69.028 383.801 70.247 383.439 71.925 C 382.02 79.64 371.476 87.901 369.577 89.553 Z  M 390.079 86.589 C 387.831 88.303 386.06 89.858 383.475 91.048 C 382.77 91.403 381.734 91.356 380.999 91.25 C 381.553 88.337 383.366 84.851 384.475 82.132 C 386.124 77.841 387.821 74.4 389.621 70.175 C 390.474 67.899 391.506 65.898 392.499 63.677 C 391.616 62.222 389.724 62.121 388.209 62.425 C 387.617 63.993 386.699 65.518 386.095 67.082 C 385.597 66.786 383.548 64.502 379.837 65.221 C 378.275 65.526 376.843 66.174 375.48 66.977 C 373.169 68.288 369.697 70.988 367.665 72.953 C 365.464 75.186 363.508 77.648 361.764 80.25 C 360.144 82.66 358.25 85.553 357.443 88.388 C 356.748 90.701 356.538 92.956 357.955 95.081 C 360.765 97.98 367.762 93.73 369.462 92.521 C 373.139 89.915 377.436 85.355 378.307 84.88 C 377.578 86.881 377.005 88.691 376.102 90.741 C 375.518 92.001 374.908 94.076 375.663 95.348 C 376.732 96.2 378.796 95.986 379.861 95.812 C 384.131 95.013 388.452 90.714 391.172 88.064 C 392.006 87.355 391.135 86.026 390.079 86.589 Z " fill="rgb(255,145,0)"/><path d=" M 401.647 64.851 C 403.274 64.197 405.182 63.343 406.717 64.269 C 407.735 64.848 407.717 66.114 407.384 67.04 C 405.897 71.236 405.044 72.036 403.611 75.745 C 403.477 76.102 401.33 80.696 401.792 80.91 C 403.322 78.953 406.686 74.228 409.654 71.21 C 412.405 68.646 415.342 65.895 418.468 64.851 C 420.278 64.25 422.317 63.995 423.977 64.676 C 427.231 66.018 424.77 72.412 423.703 75.016 C 423.318 75.888 421.27 79.968 421.495 80.26 C 421.678 80.497 427.067 73.301 427.438 72.831 C 431.367 67.79 438.55 62.789 443.038 64.729 C 444.442 65.341 445.276 66.963 445.178 68.512 C 445.048 72.593 442.991 76.102 441.437 79.773 C 439.944 83.108 439.205 84.327 437.604 87.611 C 437.333 88.127 435.961 90.884 436.363 91.3 C 436.782 91.721 439.301 91.137 443.411 87.318 C 444.969 85.867 446.265 87.341 445.345 88.361 C 443.71 90.163 441.816 91.863 439.833 93.235 C 438.318 94.323 436.481 95.091 434.739 95.71 C 433.462 96.188 427.184 97.071 430.419 90.992 C 431.891 88.238 432.898 85.678 434.328 82.905 C 435.433 80.062 441.168 69.266 439.566 67.689 C 435.733 65.481 427.756 76.47 424.719 80.522 C 423.511 82.307 421.041 85.41 419.65 87.611 C 417.344 91.25 414.155 97.726 411.567 95.872 C 410.364 95.003 411.171 92.98 411.534 92.249 C 412.617 90.065 415.77 82.388 416.917 79.712 C 418.357 76.604 420.741 71.853 420.793 69.085 C 420.807 68.426 420.812 67.614 419.721 67.373 C 418.604 67.128 417.4 67.894 416.468 68.466 C 412.39 71.236 409.432 74.634 406.428 78.498 C 402.326 83.931 400.035 89.06 396.282 94.717 C 394.905 96.805 391.217 96.73 392.345 93.61 C 393.086 91.558 393.852 89.507 394.775 87.529 C 396.453 83.327 398.048 79.518 399.633 75.283 C 400.457 73.074 402.326 69.266 401.356 68.683 C 400.216 67.978 398.454 68.74 397.109 69.584 C 395.785 70.376 395.022 71.304 393.86 72.303 C 393.351 72.736 392.424 72.138 392.963 70.843 C 393.371 69.851 395.139 68.664 396.282 67.911 C 399.002 66.114 401.647 64.851 401.647 64.851 Z " fill="rgb(255,145,0)"/><path d=" M 496.653 64.501 C 497.375 64.631 497.665 66.166 497.313 66.83 C 494.91 72.092 485.901 91.173 486.59 91.197 C 489.526 91.323 494.049 87.418 494.849 86.469 C 495.766 85.368 497.413 86.001 496.709 87.225 C 495.672 89.036 490.322 92.751 489.596 93.236 C 486.056 95.614 482.026 96.44 480.505 95.706 C 478.995 94.975 479.897 92.689 480.51 91.352 C 483.095 85.578 485.78 79.854 488.479 74.129 C 489.23 72.466 490.07 71.124 490.505 69.596 C 490.798 68.579 488.386 69.716 487.884 70.065 C 486.022 71.203 483.337 73.9 482.465 72.955 C 481.626 72.047 482.911 70.407 483.82 69.751 C 490.505 64.952 494.473 64.098 496.653 64.501 Z " fill="rgb(255,145,0)"/><path d=" M 351.548 65.291 C 354.217 63.977 357.514 63.834 360.475 64.852 C 363.582 65.921 363.594 70.136 362.756 71.013 C 361.567 72.222 359.162 72.959 357.897 71.897 C 356.724 70.919 357.596 69.122 356.838 67.863 C 356.087 66.612 353.818 66.688 352.566 67.423 C 351.46 68.005 344.804 73.102 342.851 83.033 C 342.455 85.038 342.283 87.101 342.42 89.135 C 342.506 90.253 343.106 91.816 344.355 92.011 C 346.026 92.277 347.803 92.018 349.319 91.175 C 351.017 90.234 352.09 89.557 353.63 88.388 C 354.846 87.463 356.543 88.531 355.429 89.647 C 354.424 90.65 353.253 91.633 352.129 92.509 C 350.887 93.367 346.448 97.507 339.368 95.567 C 335.141 94.298 335.601 85.467 336.747 82.458 C 340.095 73.636 346.529 67.752 351.548 65.291 Z " fill="rgb(255,145,0)"/><path d=" M 515.581 85.1 C 515.006 86.135 510.159 95.508 504.657 93.387 C 500.306 91.718 504.449 82.193 505.862 78.728 C 507.925 74.415 512.74 65.443 517.51 66.541 C 523.658 68.94 516.724 83.011 515.581 85.1 Z  M 517.179 64.207 C 510.812 64.027 503.681 70.721 501.132 75.164 C 500.153 76.865 494.509 86.737 498.797 92.827 C 500.426 95.033 503.064 95.694 505.716 96.051 C 513.551 97.109 521.401 87.173 523.516 82.108 C 524.844 78.927 530.868 65.191 517.179 64.207 Z " fill="rgb(255,145,0)"/><path d=" M 542.988 65.011 C 545.022 65.953 545.538 68.258 544.881 69.843 C 544.493 70.797 543.296 71.561 542.366 71.053 C 541.528 70.441 540.964 69.448 540.071 68.902 C 538.985 68.32 536.726 67.228 534.762 68.865 C 533.448 69.963 533.784 72.64 534.52 74.19 C 535.53 76.489 536.955 78.561 538.302 80.672 C 539.839 83.134 540.252 86.026 539.136 88.7 C 538.106 91.159 535.929 93.428 533.413 94.813 C 528.635 97.45 521.877 96.526 522.051 91.801 C 522.059 90.854 522.536 89.858 523.333 89.429 C 524.063 89.04 524.83 89.299 525.551 89.826 C 526.398 90.408 528.9 93.542 532.578 92.259 C 534.155 91.71 534.832 89.937 534.858 88.303 C 534.888 86.19 533.777 84.428 532.672 82.784 C 531.373 80.415 529.72 78.189 529.095 75.52 C 528.709 73.459 529.598 71.442 530.713 69.766 C 531.999 68.089 533.608 66.999 535.414 65.936 C 535.414 65.936 539.417 63.355 542.988 65.011 Z " fill="rgb(255,145,0)"/></g></g></svg>